<?xml version="1.0" encoding="UTF-8"?>
<svg version="1.1" xmlns="http://www.w3.org/2000/svg" width="200" height="200">
<path d="M0 0 C2.49462742 2.67941463 2.65976965 5.23575332 3.109375 8.7734375 C3.50887659 10.90268171 3.50887659 10.90268171 5.203125 12.1015625 C6.43591196 12.73867509 7.68244025 13.34991512 8.94140625 13.93359375 C12.77974493 15.86564342 14.37894917 18.94988479 15.77734375 22.859375 C17.02614981 27.4652125 16.98020212 32.00650593 16.9375 36.75 C16.94910156 38.03293945 16.94910156 38.03293945 16.9609375 39.34179688 C16.94008765 46.17533655 16.69794817 53.36825901 11.875 58.6875 C11.39417969 59.24179688 10.91335937 59.79609375 10.41796875 60.3671875 C5.93005427 64.11555851 1.08286047 64.24945643 -4.52734375 64.12109375 C-10.3410451 63.4769389 -14.55428841 61.15250992 -18.25 56.625 C-20.86643638 52.46328575 -21.21277354 48.64923312 -21.3125 43.8125 C-21.37050781 42.14380859 -21.37050781 42.14380859 -21.4296875 40.44140625 C-21.77977067 22.37322481 -21.77977067 22.37322481 -16.3125 15.8125 C-14.26462314 14.54496331 -12.21227835 13.38729841 -10.0546875 12.31640625 C-7.53467564 10.14105969 -7.60434606 8.02722858 -7.3125 4.8125 C-14.52993294 6.16576868 -20.81286317 7.46051524 -26.82421875 11.82421875 C-28.3125 12.8125 -28.3125 12.8125 -30.3125 12.8125 C-30.539375 13.328125 -30.76625 13.84375 -31 14.375 C-32.14713939 16.50540173 -33.36495472 18.26170967 -34.8125 20.1875 C-39.60905384 26.86035284 -40.99046813 34.71444556 -39.9140625 42.80859375 C-37.94328207 51.90896219 -34.52116082 58.88389062 -26.75 64.25 C-20.94082979 67.88461452 -16.02085086 69.11983845 -9.1875 69.375 C-1.67008514 69.69330495 -1.67008514 69.69330495 1.6875 70.8125 C-0.44667512 75.73993372 -3.50498846 77.62990426 -8.3125 79.8125 C-21.45666059 84.02185695 -33.77055408 83.62664711 -46.3125 77.8125 C-49.5 76 -49.5 76 -52.3125 73.8125 C-52.93640625 73.34328125 -53.5603125 72.8740625 -54.203125 72.390625 C-63.44406013 64.98376859 -68.64339858 55.49620991 -70.3125 43.8125 C-71.52555814 30.67388439 -68.57954265 19.17738242 -60.3125 8.8125 C-45.02284713 -7.68288053 -19.40515002 -13.86082144 0 0 Z M-6.3125 20.8125 C-6.3125 21.1425 -6.3125 21.4725 -6.3125 21.8125 C-3.3425 21.8125 -0.3725 21.8125 2.6875 21.8125 C2.6875 21.4825 2.6875 21.1525 2.6875 20.8125 C-0.2825 20.8125 -3.2525 20.8125 -6.3125 20.8125 Z M-11.3125 31.8125 C-11.3125 37.0925 -11.3125 42.3725 -11.3125 47.8125 C-9.07620848 45.89676356 -9.07620848 45.89676356 -8.4375 42.8125 C-7.3125 39.8125 -7.3125 39.8125 -5.5625 38.375 C-2.48930339 37.60670085 -0.34535059 37.95539005 2.6875 38.8125 C4.98383824 42.25700737 5.22766485 44.75062283 5.6875 48.8125 C8.03463697 46.90193999 8.03463697 46.90193999 7.91796875 43.58984375 C7.90378906 42.32269531 7.88960937 41.05554688 7.875 39.75 C7.86855469 38.48027344 7.86210938 37.21054688 7.85546875 35.90234375 C8.03938498 32.94182447 8.03938498 32.94182447 6.6875 31.8125 C5.34482587 31.72618126 3.99775678 31.70543527 2.65234375 31.71484375 C1.84345703 31.71806641 1.03457031 31.72128906 0.20117188 31.72460938 C-0.64896484 31.73298828 -1.49910156 31.74136719 -2.375 31.75 C-3.22900391 31.75451172 -4.08300781 31.75902344 -4.96289062 31.76367188 C-7.07945663 31.77549627 -9.19598685 31.79343231 -11.3125 31.8125 Z " fill="#BFB9A7" transform="translate(85.3125,62.1875)"/>
<path d="M0 0 C1.32 0.66 2.64 1.32 4 2 C4 3.98 4 5.96 4 8 C4.9590625 8.2165625 4.9590625 8.2165625 5.9375 8.4375 C8 9 8 9 9 10 C9.12557162 12.30993382 9.17575729 14.62418536 9.1875 16.9375 C9.20167969 18.20464844 9.21585938 19.47179687 9.23046875 20.77734375 C9 24 9 24 7 26 C4.93701172 26.22705078 4.93701172 26.22705078 2.4296875 26.1953125 C1.53378906 26.18886719 0.63789063 26.18242188 -0.28515625 26.17578125 C-1.22230469 26.15902344 -2.15945312 26.14226562 -3.125 26.125 C-4.06988281 26.11597656 -5.01476562 26.10695313 -5.98828125 26.09765625 C-8.32577292 26.07404522 -10.66276123 26.04111516 -13 26 C-13.38218767 27.65614657 -13.71395102 29.32457024 -14 31 C-13.67 31.33 -13.34 31.66 -13 32 C-12.91286169 33.70772358 -12.89299993 35.41898649 -12.90234375 37.12890625 C-12.90556641 38.16337891 -12.90878906 39.19785156 -12.91210938 40.26367188 C-12.92467773 41.8965918 -12.92467773 41.8965918 -12.9375 43.5625 C-12.94201172 44.65498047 -12.94652344 45.74746094 -12.95117188 46.87304688 C-12.96300174 49.58208495 -12.97948457 52.29101599 -13 55 C-25.18315535 57.17368527 -25.18315535 57.17368527 -31 54.75 C-33.18767059 52.83578823 -33.70488433 51.85278483 -34 49 C-35.32 49 -36.64 49 -38 49 C-37.95875 49.78375 -37.9175 50.5675 -37.875 51.375 C-38 54 -38 54 -40 56 C-44.55555556 55.44444444 -44.55555556 55.44444444 -46 54 C-46.09860131 52.59651265 -46.13078937 51.18819523 -46.1328125 49.78125 C-46.13410156 48.93175781 -46.13539063 48.08226562 -46.13671875 47.20703125 C-46.13285156 46.31371094 -46.12898437 45.42039063 -46.125 44.5 C-46.12886719 43.60667969 -46.13273438 42.71335938 -46.13671875 41.79296875 C-46.13542969 40.94347656 -46.13414062 40.09398437 -46.1328125 39.21875 C-46.13168457 38.43435547 -46.13055664 37.64996094 -46.12939453 36.84179688 C-46 35 -46 35 -45 34 C-42.98035801 33.92755947 -40.95832876 33.91622812 -38.9375 33.9375 C-37.28041016 33.95103516 -37.28041016 33.95103516 -35.58984375 33.96484375 C-34.73519531 33.97644531 -33.88054687 33.98804688 -33 34 C-32.67 35.32 -32.34 36.64 -32 38 C-30.741875 37.814375 -29.48375 37.62875 -28.1875 37.4375 C-25.17255732 36.99267239 -23.99531539 37.00156154 -21 38 C-20.92945088 34.96638777 -20.95291481 32.23019428 -21.5625 29.25 C-22 27 -22 27 -21 25 C-21.61875 24.896875 -22.2375 24.79375 -22.875 24.6875 C-25 24 -25 24 -27 21 C-27.30078125 18.87890625 -27.30078125 18.87890625 -27.3125 16.5625 C-27.32925781 15.80066406 -27.34601563 15.03882812 -27.36328125 14.25390625 C-26.89384211 11.3413645 -26.14179281 10.03195728 -24 8 C-21.37109375 7.57421875 -21.37109375 7.57421875 -18.4375 7.6875 C-17.46683594 7.71199219 -16.49617188 7.73648438 -15.49609375 7.76171875 C-13 8 -13 8 -11 9 C-10.26924352 11.3140622 -9.59861742 13.64828869 -9 16 C-8.731875 15.236875 -8.46375 14.47375 -8.1875 13.6875 C-7.04865495 11.11011382 -6.18583329 9.73045136 -4 8 C-3.34 8 -2.68 8 -2 8 C-2.226875 7.236875 -2.45375 6.47375 -2.6875 5.6875 C-2.8421875 4.3571875 -2.8421875 4.3571875 -3 3 C-1.5625 1.1875 -1.5625 1.1875 0 0 Z M-25 44 C-25.33 45.32 -25.66 46.64 -26 48 C-25.01 48.495 -25.01 48.495 -24 49 C-23.01 48.34 -22.02 47.68 -21 47 C-21.33 46.01 -21.66 45.02 -22 44 C-22.99 44 -23.98 44 -25 44 Z " fill="#885D3E" transform="translate(176,76)"/>
<path d="M0 0 C1.66611905 -0.042721 3.33382885 -0.04063832 5 0 C7.66052231 2.66052231 6.3330946 10.17661245 6.375 13.75 C6.41238281 14.94367188 6.44976562 16.13734375 6.48828125 17.3671875 C6.57537851 26.01884898 6.57537851 26.01884898 4.86035156 28.94335938 C3.4765625 30.328125 3.4765625 30.328125 1 32 C0.360625 31.67 -0.27875 31.34 -0.9375 31 C-5.02526999 29.66521796 -8.74166567 29.85646064 -13 30 C-13.99 30 -14.98 30 -16 30 C-18.15028304 30.94978897 -18.15028304 30.94978897 -20 32 C-21.5625 30.75 -21.5625 30.75 -23 29 C-22.7181953 26.67511119 -22.04553582 25.09107165 -21 23 C-20.76827173 20.45384991 -20.58105471 17.92603775 -20.4375 15.375 C-20.39431641 14.66859375 -20.35113281 13.9621875 -20.30664062 13.234375 C-20.20055249 11.48981463 -20.09977111 9.74493303 -20 8 C-17.625 7.375 -17.625 7.375 -15 7 C-13 9 -13 9 -12.875 12.625 C-12.91625 13.73875 -12.9575 14.8525 -13 16 C-12.01 16 -11.02 16 -10 16 C-10 13.36 -10 10.72 -10 8 C-7.625 7.375 -7.625 7.375 -5 7 C-3 9 -3 9 -2.8046875 12.4765625 C-2.81798507 13.85950968 -2.84183768 15.24238654 -2.875 16.625 C-2.88402344 17.33140625 -2.89304688 18.0378125 -2.90234375 18.765625 C-2.92592397 20.51056098 -2.96179539 22.25532295 -3 24 C-2.67 24 -2.34 24 -2 24 C-1.83168225 21.58343806 -1.66528738 19.16676951 -1.5 16.75 C-1.45230469 16.06808594 -1.40460938 15.38617188 -1.35546875 14.68359375 C-1.13521281 11.44268497 -1 8.2506634 -1 5 C-0.69595322 3.32774271 -0.36871088 1.65919896 0 0 Z " fill="#895C3E" transform="translate(133,77)"/>
<path d="M0 0 C5.29184081 2.03590994 10.00274723 3.98866973 13 9 C13.12375 10.7325 13.12375 10.7325 13.25 12.5 C13.4975 13.655 13.745 14.81 14 16 C17.01594132 18.03253405 17.01594132 18.03253405 19.21484375 19.03125 C22.48861361 20.80782533 24.36800183 23.73600366 26 27 C26.24108953 30.82825869 26.18519253 34.66499262 26.1875 38.5 C26.19974609 39.57121094 26.21199219 40.64242187 26.22460938 41.74609375 C26.22654297 42.76832031 26.22847656 43.79054687 26.23046875 44.84375 C26.23457764 45.78412109 26.23868652 46.72449219 26.24291992 47.69335938 C26 50 26 50 24 52 C23.95101562 50.70964844 23.90203125 49.41929688 23.8515625 48.08984375 C23.77648197 46.37237653 23.70093646 44.65492959 23.625 42.9375 C23.5940625 42.08994141 23.563125 41.24238281 23.53125 40.36914062 C23.29468217 35.26321829 22.61955494 30.85208127 21 26 C20.34 26.33 19.68 26.66 19 27 C18.67 27.99 18.34 28.98 18 30 C15.77100213 30.16890918 13.54179338 30.33503687 11.3125 30.5 C10.07113281 30.5928125 8.82976562 30.685625 7.55078125 30.78125 C4.68500671 30.95779937 1.86900043 31.04388528 -1 31 C-0.375 29.0625 -0.375 29.0625 1 27 C4.125 26.25 4.125 26.25 7 26 C7 25.01 7 24.02 7 23 C3.76740301 24.00056574 0.8332293 25.08502036 -2.1875 26.625 C-5 28 -5 28 -8 28 C-8.0625 25.375 -8.0625 25.375 -7 22 C-4.7672405 20.32864452 -2.42670371 18.95609192 -0.03515625 17.5234375 C2.34486812 16.05074971 2.34486812 16.05074971 3.0625 12.625 C3.041875 11.75875 3.02125 10.8925 3 10 C-1.455 10.495 -1.455 10.495 -6 11 C-5.01 10.67 -4.02 10.34 -3 10 C-2.67 9.01 -2.34 8.02 -2 7 C-0.35 6.67 1.3 6.34 3 6 C1.41701974 5.5196682 -0.16639978 5.04078388 -1.75 4.5625 C-2.63171875 4.29566406 -3.5134375 4.02882813 -4.421875 3.75390625 C-6.60565835 3.11531506 -8.78835498 2.53224167 -11 2 C-11 1.34 -11 0.68 -11 0 C-7.4537893 -1.77310535 -3.76872743 -0.83686243 0 0 Z " fill="#BBB5A3" transform="translate(75,57)"/>
<path d="M0 0 C1.32 0.66 2.64 1.32 4 2 C4 3.98 4 5.96 4 8 C4.9590625 8.2165625 4.9590625 8.2165625 5.9375 8.4375 C8 9 8 9 9 10 C9.07271741 12.35313555 9.08370868 14.70833668 9.0625 17.0625 C9.05347656 18.35285156 9.04445312 19.64320312 9.03515625 20.97265625 C9.02355469 21.97167969 9.01195312 22.97070312 9 24 C8.01 24.33 7.02 24.66 6 25 C6 24.34 6 23.68 6 23 C4.35 23 2.7 23 1 23 C1 22.67 1 22.34 1 22 C2.65 22 4.3 22 6 22 C6 18.37 6 14.74 6 11 C4.88625 11.020625 3.7725 11.04125 2.625 11.0625 C-1 11 -1 11 -3 10 C-3 10.99 -3 11.98 -3 13 C-3.66 13 -4.32 13 -5 13 C-5 14.65 -5 16.3 -5 18 C-6.98 18 -8.96 18 -11 18 C-10.505 16.515 -10.505 16.515 -10 15 C-9.67 15.33 -9.34 15.66 -9 16 C-8.731875 15.236875 -8.46375 14.47375 -8.1875 13.6875 C-7.04865495 11.11011382 -6.18583329 9.73045136 -4 8 C-3.34 8 -2.68 8 -2 8 C-2.226875 7.236875 -2.45375 6.47375 -2.6875 5.6875 C-2.790625 4.800625 -2.89375 3.91375 -3 3 C-1.5625 1.1875 -1.5625 1.1875 0 0 Z " fill="#845239" transform="translate(176,76)"/>
<path d="M0 0 C4.70588235 0.70588235 4.70588235 0.70588235 6 2 C6.09860131 3.40348735 6.13078937 4.81180477 6.1328125 6.21875 C6.13410156 7.06824219 6.13539063 7.91773437 6.13671875 8.79296875 C6.13285156 9.68628906 6.12898437 10.57960938 6.125 11.5 C6.12886719 12.39332031 6.13273438 13.28664063 6.13671875 14.20703125 C6.13542969 15.05652344 6.13414062 15.90601562 6.1328125 16.78125 C6.13168457 17.56564453 6.13055664 18.35003906 6.12939453 19.15820312 C6 21 6 21 5 22 C2.5 22.125 2.5 22.125 0 22 C-1.58937556 20.41062444 -1.12981143 18.76100154 -1.1328125 16.5625 C-1.13410156 15.66789062 -1.13539063 14.77328125 -1.13671875 13.8515625 C-1.13091797 12.44003906 -1.13091797 12.44003906 -1.125 11 C-1.12886719 10.05898437 -1.13273438 9.11796875 -1.13671875 8.1484375 C-1.13542969 7.25382812 -1.13414062 6.35921875 -1.1328125 5.4375 C-1.13112061 4.19806641 -1.13112061 4.19806641 -1.12939453 2.93359375 C-1 1 -1 1 0 0 Z " fill="#835841" transform="translate(142,79)"/>
<path d="M0 0 C1.65 1.65 3.3 3.3 5 5 C5.33 4.34 5.66 3.68 6 3 C6.99 3.33 7.98 3.66 9 4 C9 5.32 9 6.64 9 8 C11.31 8.66 13.62 9.32 16 10 C16.33 11.32 16.66 12.64 17 14 C11.79247147 16.21319962 8.42229451 16.15557096 3 15 C1.0625 13.9375 1.0625 13.9375 0 12 C-0.53005137 9.31794009 -0.77575685 6.73576644 -1 4 C-2.65 4 -4.3 4 -6 4 C-6 3.34 -6 2.68 -6 2 C-4.02 2 -2.04 2 0 2 C0 1.34 0 0.68 0 0 Z " fill="#8B5C3D" transform="translate(142,116)"/>
<path d="M0 0 C5.30215035 2.03987629 9.97656045 3.99397714 13 9 C12.6875 11.25 12.6875 11.25 12 13 C11.34 13 10.68 13 10 13 C9.34 12.01 8.68 11.02 8 10 C6.68 11.32 5.36 12.64 4 14 C3.67 13.01 3.34 12.02 3 11 C0.03 11 -2.94 11 -6 11 C-5.01 10.67 -4.02 10.34 -3 10 C-2.67 9.01 -2.34 8.02 -2 7 C-0.35 6.67 1.3 6.34 3 6 C1.41701974 5.5196682 -0.16639978 5.04078388 -1.75 4.5625 C-2.63171875 4.29566406 -3.5134375 4.02882813 -4.421875 3.75390625 C-6.60565835 3.11531506 -8.78835498 2.53224167 -11 2 C-11 1.34 -11 0.68 -11 0 C-7.4537893 -1.77310535 -3.76872743 -0.83686243 0 0 Z " fill="#B5AF9F" transform="translate(75,57)"/>
<path d="M0 0 C1.66611905 -0.042721 3.33382885 -0.04063832 5 0 C6 1 6 1 6.11352539 3.31665039 C6.10828857 4.31688232 6.10305176 5.31711426 6.09765625 6.34765625 C6.09282227 7.96704102 6.09282227 7.96704102 6.08789062 9.61914062 C6.07951172 10.75544922 6.07113281 11.89175781 6.0625 13.0625 C6.05798828 14.20267578 6.05347656 15.34285156 6.04882812 16.51757812 C6.03699747 19.34510351 6.0205141 22.1725264 6 25 C5.34 25 4.68 25 4 25 C4 19.72 4 14.44 4 9 C3.01 9 2.02 9 1 9 C0.67 12.96 0.34 16.92 0 21 C-0.33 21 -0.66 21 -1 21 C-1 4.5 -1 4.5 0 0 Z " fill="#8E644C" transform="translate(133,77)"/>
<path d="M0 0 C1.4540625 0.0309375 1.4540625 0.0309375 2.9375 0.0625 C2.9375 0.7225 2.9375 1.3825 2.9375 2.0625 C3.9275 2.3925 4.9175 2.7225 5.9375 3.0625 C3.6275 3.0625 1.3175 3.0625 -1.0625 3.0625 C-1.0625 8.0125 -1.0625 12.9625 -1.0625 18.0625 C0.5875 18.0625 2.2375 18.0625 3.9375 18.0625 C3.2775 19.3825 2.6175 20.7025 1.9375 22.0625 C-2.9375 21.1875 -2.9375 21.1875 -4.0625 20.0625 C-4.16110131 18.65901265 -4.19328937 17.25069523 -4.1953125 15.84375 C-4.19660156 14.99425781 -4.19789063 14.14476563 -4.19921875 13.26953125 C-4.19535156 12.37621094 -4.19148437 11.48289062 -4.1875 10.5625 C-4.19136719 9.66917969 -4.19523438 8.77585937 -4.19921875 7.85546875 C-4.19792969 7.00597656 -4.19664062 6.15648438 -4.1953125 5.28125 C-4.19418457 4.49685547 -4.19305664 3.71246094 -4.19189453 2.90429688 C-3.96768785 -0.2870525 -3.25496391 0.06642783 0 0 Z " fill="#7B5C3D" transform="translate(134.0625,109.9375)"/>
<path d="M0 0 C-0.33 0.66 -0.66 1.32 -1 2 C-0.67240066 4.33414529 -0.33926947 6.66752239 0 9 C-0.33 9.33 -0.66 9.66 -1 10 C-0.34 10.33 0.32 10.66 1 11 C0.67 11.66 0.34 12.32 0 13 C-2.88437779 11.70700306 -4.87219421 10.34058637 -7 8 C-7.33 8.99 -7.66 9.98 -8 11 C-8.66 11 -9.32 11 -10 11 C-10.0270043 9.54176788 -10.04639787 8.08339325 -10.0625 6.625 C-10.07410156 5.81289062 -10.08570313 5.00078125 -10.09765625 4.1640625 C-10 2 -10 2 -9 0 C-5.52176885 -1.15941038 -3.54104422 -0.70820884 0 0 Z " fill="#886344" transform="translate(159,86)"/>
<path d="M0 0 C1.32 0 2.64 0 4 0 C4 3.96 4 7.92 4 12 C4.66 12 5.32 12 6 12 C6 12.99 6 13.98 6 15 C3.125 15.625 3.125 15.625 0 16 C-0.66 15.34 -1.32 14.68 -2 14 C-0.68 14 0.64 14 2 14 C1.67 12.68 1.34 11.36 1 10 C-1.97 9.505 -1.97 9.505 -5 9 C-4.34 8.01 -3.68 7.02 -3 6 C-2.34 6 -1.68 6 -1 6 C-0.67 4.02 -0.34 2.04 0 0 Z " fill="#92563B" transform="translate(157,116)"/>
<path d="M0 0 C1.3006449 4.39774028 0.74105456 8.13631269 0.1875 12.625 C0.10435547 13.40101562 0.02121094 14.17703125 -0.06445312 14.9765625 C-0.75119304 20.75119304 -0.75119304 20.75119304 -3 23 C-5.60059391 17.79881218 -4.40025179 9.84528532 -3.125 4.3125 C-2 1 -2 1 0 0 Z " fill="#B6B2A3" transform="translate(19,85)"/>
<path d="M0 0 C0.99 0.99 1.98 1.98 3 3 C1.02 3.66 -0.96 4.32 -3 5 C-3 5.66 -3 6.32 -3 7 C-4.63790712 8.04644066 -6.31008021 9.0398183 -8 10 C-9.34631825 10.98244845 -10.68441297 11.97676564 -12 13 C-12.33 12.01 -12.66 11.02 -13 10 C-11.58829091 8.70291686 -10.17041804 7.41254022 -8.75 6.125 C-7.96109375 5.40570313 -7.1721875 4.68640625 -6.359375 3.9453125 C-4.27973832 2.23064517 -2.45580733 1.07019127 0 0 Z " fill="#B6B2A3" transform="translate(39,60)"/>
<path d="M0 0 C1.00289062 0.10183594 2.00578125 0.20367187 3.0390625 0.30859375 C3.80992188 0.39238281 4.58078125 0.47617188 5.375 0.5625 C5.045 1.5525 4.715 2.5425 4.375 3.5625 C-0.29701205 4.76818053 -4.83996292 4.65632426 -9.625 4.5625 C-7.27560404 -0.63973392 -5.51229865 -0.57686846 0 0 Z " fill="#B8B2A0" transform="translate(83.625,83.4375)"/>
<path d="M0 0 C1.32 0 2.64 0 4 0 C4.33 3.63 4.66 7.26 5 11 C1.37 10.67 -2.26 10.34 -6 10 C-6 9.67 -6 9.34 -6 9 C-3.69 9 -1.38 9 1 9 C0.67 6.03 0.34 3.06 0 0 Z " fill="#875B39" transform="translate(125,89)"/>
<path d="M0 0 C4.70588235 0.70588235 4.70588235 0.70588235 6 2 C6.04063832 3.66617115 6.042721 5.33388095 6 7 C5.34 7 4.68 7 4 7 C3.67 9.31 3.34 11.62 3 14 C2.67 14 2.34 14 2 14 C1.92652344 13.09507813 1.92652344 13.09507813 1.8515625 12.171875 C1.77679688 11.37265625 1.70203125 10.5734375 1.625 9.75 C1.55539063 8.96109375 1.48578125 8.1721875 1.4140625 7.359375 C0.98492887 4.914123 0.21399362 3.15163097 -1 1 C-0.67 0.67 -0.34 0.34 0 0 Z " fill="#94563C" transform="translate(142,79)"/>
<path d="M0 0 C1.67542976 0.28604898 3.34385343 0.61781233 5 1 C5.33 2.65 5.66 4.3 6 6 C5.34 5.67 4.68 5.34 4 5 C4 4.01 4 3.02 4 2 C3.01 2 2.02 2 1 2 C1 6.29 1 10.58 1 15 C0.34 15 -0.32 15 -1 15 C-1.02685412 12.68756208 -1.04632841 10.3750373 -1.0625 8.0625 C-1.07410156 6.77472656 -1.08570312 5.48695312 -1.09765625 4.16015625 C-1 1 -1 1 0 0 Z " fill="#876647" transform="translate(114,84)"/>
<path d="M0 0 C1.32 0.66 2.64 1.32 4 2 C4 3.98 4 5.96 4 8 C1.625 8.125 1.625 8.125 -1 8 C-1.66 7.34 -2.32 6.68 -3 6 C-2.63318342 3.06546739 -2.13562754 2.13562754 0 0 Z " fill="#69523D" transform="translate(176,76)"/>
<path d="M0 0 C0 3.54404336 -0.60989485 4.10267905 -2.875 6.6875 C-3.40867187 7.31011719 -3.94234375 7.93273437 -4.4921875 8.57421875 C-6 10 -6 10 -8 10 C-8 10.66 -8 11.32 -8 12 C-8.66 12 -9.32 12 -10 12 C-10.0625 9.375 -10.0625 9.375 -9 6 C-6.19822496 3.65285261 -3.17129459 1.80667692 0 0 Z " fill="#B5AC9C" transform="translate(77,73)"/>
<path d="M0 0 C0.99 0.495 0.99 0.495 2 1 C2 6.28 2 11.56 2 17 C2.66 17 3.32 17 4 17 C4 17.66 4 18.32 4 19 C2.68 18.67 1.36 18.34 0 18 C0 12.06 0 6.12 0 0 Z " fill="#896D44" transform="translate(141,82)"/>
<path d="M0 0 C3.63 0 7.26 0 11 0 C11 0.66 11 1.32 11 2 C10.34 2 9.68 2 9 2 C9 2.66 9 3.32 9 4 C6.36 4 3.72 4 1 4 C0.67 2.68 0.34 1.36 0 0 Z " fill="#CBC7B9" transform="translate(55,55)"/>
<path d="M0 0 C1.66611905 -0.042721 3.33382885 -0.04063832 5 0 C6 1 6 1 6.0625 3.5625 C6.041875 4.366875 6.02125 5.17125 6 6 C5.01 6.495 5.01 6.495 4 7 C1.375 6.0625 1.375 6.0625 -1 5 C-0.67 3.35 -0.34 1.7 0 0 Z " fill="#915743" transform="translate(133,77)"/>
<path d="M0 0 C0 0.99 0 1.98 0 3 C-2.88211302 3.96070434 -4.69850044 4.10581883 -7.6875 4.0625 C-8.89986328 4.04896484 -8.89986328 4.04896484 -10.13671875 4.03515625 C-11.05904297 4.01775391 -11.05904297 4.01775391 -12 4 C-12 3.34 -12 2.68 -12 2 C-10.7625 1.67 -9.525 1.34 -8.25 1 C-7.55390625 0.814375 -6.8578125 0.62875 -6.140625 0.4375 C-4 0 -4 0 0 0 Z " fill="#B8B1A3" transform="translate(73,140)"/>
<path d="M0 0 C2.97 0.495 2.97 0.495 6 1 C6.33 2.32 6.66 3.64 7 5 C4.69 5.66 2.38 6.32 0 7 C-1.04449911 3.86650268 -0.93423645 3.01031744 0 0 Z " fill="#7F6143" transform="translate(152,125)"/>
<path d="M0 0 C1.43655854 -0.08131463 2.8744483 -0.13933559 4.3125 -0.1875 C5.51326172 -0.23970703 5.51326172 -0.23970703 6.73828125 -0.29296875 C9.47851584 0.06198392 10.29171079 0.89366282 12 3 C9.69 3.66 7.38 4.32 5 5 C5 4.34 5 3.68 5 3 C3.68 3.33 2.36 3.66 1 4 C0.67 2.68 0.34 1.36 0 0 Z " fill="#906B4E" transform="translate(118,99)"/>
<path d="M0 0 C2.67927341 4.01891012 2.15601248 6.24161923 2 11 C1.34 11 0.68 11 0 11 C-0.33 8.69 -0.66 6.38 -1 4 C-2.65 4 -4.3 4 -6 4 C-6 3.34 -6 2.68 -6 2 C-4.02 2 -2.04 2 0 2 C0 1.34 0 0.68 0 0 Z " fill="#8A6C50" transform="translate(142,116)"/>
<path d="M0 0 C1.32 0 2.64 0 4 0 C4 3.96 4 7.92 4 12 C4.66 12 5.32 12 6 12 C6 12.99 6 13.98 6 15 C4.02 15.33 2.04 15.66 0 16 C0.99 15.67 1.98 15.34 3 15 C3 10.38 3 5.76 3 1 C2.34 1 1.68 1 1 1 C1 2.65 1 4.3 1 6 C0.67 6 0.34 6 0 6 C0 4.02 0 2.04 0 0 Z " fill="#6F4A31" transform="translate(157,116)"/>
<path d="M0 0 C0 0.66 0 1.32 0 2 C-0.78375 2.433125 -1.5675 2.86625 -2.375 3.3125 C-5.41686215 5.26798281 -5.98981901 6.60211849 -7 10 C-7.66 9.67 -8.32 9.34 -9 9 C-8.8125 6.1875 -8.8125 6.1875 -8 3 C-5.11373339 0.72136847 -3.6952982 0 0 0 Z " fill="#B5B2A1" transform="translate(85,99)"/>
<path d="M0 0 C4.875 0.875 4.875 0.875 6 2 C6.07244053 4.01964199 6.08377188 6.04167124 6.0625 8.0625 C6.05347656 9.16722656 6.04445312 10.27195312 6.03515625 11.41015625 C6.02355469 12.26480469 6.01195312 13.11945313 6 14 C5.67 14 5.34 14 5 14 C4.65820312 11.02148438 4.65820312 11.02148438 4.31640625 8.04296875 C4.02829265 5.80603607 4.02829265 5.80603607 3 3 C2.01 3.33 1.02 3.66 0 4 C0 2.68 0 1.36 0 0 Z " fill="#97594A" transform="translate(124,84)"/>
<path d="M0 0 C0.33 0.99 0.66 1.98 1 3 C-2.96 3.66 -6.92 4.32 -11 5 C-10.67 4.34 -10.34 3.68 -10 3 C-9.34 3 -8.68 3 -8 3 C-8 2.34 -8 1.68 -8 1 C-5.29120665 -0.35439668 -2.99066732 -0.06501451 0 0 Z " fill="#B4AD9D" transform="translate(55,56)"/>
<path d="M0 0 C1.79158489 -0.02696365 3.58328473 -0.04637917 5.375 -0.0625 C6.37273437 -0.07410156 7.37046875 -0.08570312 8.3984375 -0.09765625 C11 0 11 0 13 1 C12.67 2.32 12.34 3.64 12 5 C10.68 4.34 9.36 3.68 8 3 C8 2.34 8 1.68 8 1 C3.545 1.495 3.545 1.495 -1 2 C-0.67 1.34 -0.34 0.68 0 0 Z " fill="#994A39" transform="translate(152,84)"/>
<path d="M0 0 C0 1.98 0 3.96 0 6 C-1.65 6.33 -3.3 6.66 -5 7 C-4.67 5.35 -4.34 3.7 -4 2 C-4.66 1.67 -5.32 1.34 -6 1 C-3 0 -3 0 0 0 Z " fill="#876246" transform="translate(159,99)"/>
<path d="M0 0 C1.65 0.33 3.3 0.66 5 1 C5 1.66 5 2.32 5 3 C3.68 3 2.36 3 1 3 C0.67 4.98 0.34 6.96 0 9 C-2 6 -2 6 -2 3 C-1.34 3 -0.68 3 0 3 C0 2.01 0 1.02 0 0 Z " fill="#88684D" transform="translate(156,113)"/>
<path d="M0 0 C-0.33 1.32 -0.66 2.64 -1 4 C-2.65 4.33 -4.3 4.66 -6 5 C-6.66 3.68 -7.32 2.36 -8 1 C-5.07175348 0.02391783 -3.04386724 -0.08226668 0 0 Z " fill="#9C4D36" transform="translate(152,113)"/>
<path d="M0 0 C1.65 0.33 3.3 0.66 5 1 C4.34 2.98 3.68 4.96 3 7 C2.01 6.67 1.02 6.34 0 6 C0 5.34 0 4.68 0 4 C-0.66 3.67 -1.32 3.34 -2 3 C-1.34 3 -0.68 3 0 3 C0 2.01 0 1.02 0 0 Z " fill="#8A5537" transform="translate(151,114)"/>
<path d="M0 0 C0.763125 0.20625 1.52625 0.4125 2.3125 0.625 C-0.54056797 2.94972205 -3.22824837 4.3758258 -6.6875 5.625 C-6.375 3.75 -6.375 3.75 -5.6875 1.625 C-2.6875 -0.375 -2.6875 -0.375 0 0 Z " fill="#B1AEA1" transform="translate(64.6875,67.375)"/>
<path d="M0 0 C3.63 0.33 7.26 0.66 11 1 C10.67 1.99 10.34 2.98 10 4 C5.82412255 5.39195915 3.86525224 3.82323219 0 2 C0 1.34 0 0.68 0 0 Z " fill="#A5A295" transform="translate(78,83)"/>
<path d="M0 0 C0.99 0 1.98 0 3 0 C3 1.32 3 2.64 3 4 C3.66 4 4.32 4 5 4 C5 4.66 5 5.32 5 6 C4.34 6 3.68 6 3 6 C2.67 6.66 2.34 7.32 2 8 C-0.1519437 4.77208445 -0.20086443 3.71599191 0 0 Z " fill="#B2AA9B" transform="translate(71,107)"/>
<path d="M0 0 C0.99 0.33 1.98 0.66 3 1 C3.33 3.31 3.66 5.62 4 8 C2.68 8 1.36 8 0 8 C0 5.36 0 2.72 0 0 Z " fill="#8B6950" transform="translate(148,119)"/>
<path d="M0 0 C1.32 0 2.64 0 4 0 C3.67 1.65 3.34 3.3 3 5 C1.68 4.67 0.36 4.34 -1 4 C-0.67 2.68 -0.34 1.36 0 0 Z " fill="#775B3E" transform="translate(126,102)"/>
<path d="M0 0 C2.475 0.495 2.475 0.495 5 1 C5 3.31 5 5.62 5 8 C4.34 7.67 3.68 7.34 3 7 C2.375 4.4375 2.375 4.4375 2 2 C1.34 2 0.68 2 0 2 C0 1.34 0 0.68 0 0 Z " fill="#B5B19F" transform="translate(85,101)"/>
<path d="M0 0 C2.475 0.495 2.475 0.495 5 1 C4.34 2.32 3.68 3.64 3 5 C2.01 5 1.02 5 0 5 C0 3.35 0 1.7 0 0 Z " fill="#AFACA1" transform="translate(82,132)"/>
<path d="M0 0 C1.98 0 3.96 0 6 0 C6.33 0.99 6.66 1.98 7 3 C6.01 3 5.02 3 4 3 C4 3.66 4 4.32 4 5 C3.34 4.67 2.68 4.34 2 4 C2.33 3.34 2.66 2.68 3 2 C2.01 2 1.02 2 0 2 C0 1.34 0 0.68 0 0 Z " fill="#875830" transform="translate(137,110)"/>
<path d="M0 0 C0.99 0.66 1.98 1.32 3 2 C0.03 4.475 0.03 4.475 -3 7 C-3.33 6.01 -3.66 5.02 -4 4 C-2.68 2.68 -1.36 1.36 0 0 Z " fill="#A8A395" transform="translate(30,66)"/>
<path d="M0 0 C1.98 0 3.96 0 6 0 C6.33 0.99 6.66 1.98 7 3 C4.69 3 2.38 3 0 3 C0 2.01 0 1.02 0 0 Z " fill="#9F4C35" transform="translate(176,99)"/>
<path d="M0 0 C2.97 0.33 5.94 0.66 9 1 C6.38058783 2.74627478 4.96175123 3.38722388 2 4 C1.34 2.68 0.68 1.36 0 0 Z " fill="#8C543A" transform="translate(150,97)"/>
<path d="M0 0 C1.65 0.33 3.3 0.66 5 1 C5.33 2.65 5.66 4.3 6 6 C5.34 5.67 4.68 5.34 4 5 C4 4.01 4 3.02 4 2 C2.35 2.33 0.7 2.66 -1 3 C-0.67 2.01 -0.34 1.02 0 0 Z " fill="#876F5F" transform="translate(114,84)"/>
<path d="M0 0 C0 0.66 0 1.32 0 2 C0.66 2.33 1.32 2.66 2 3 C-1.375 3.125 -1.375 3.125 -5 3 C-5.66 2.34 -6.32 1.68 -7 1 C-4 0 -4 0 0 0 Z " fill="#D3D0C6" transform="translate(61,142)"/>
<path d="M0 0 C1.32 0 2.64 0 4 0 C4 1.32 4 2.64 4 4 C4.66 4.33 5.32 4.66 6 5 C4.68 5 3.36 5 2 5 C2 4.34 2 3.68 2 3 C1.34 3 0.68 3 0 3 C0 2.01 0 1.02 0 0 Z " fill="#7F6337" transform="translate(137,120)"/>
<path d="M0 0 C2 2 2 2 2.125 4.625 C2.08375 5.40875 2.0425 6.1925 2 7 C0.35 7 -1.3 7 -3 7 C-2.67 6.01 -2.34 5.02 -2 4 C-1.34 3.67 -0.68 3.34 0 3 C0 2.01 0 1.02 0 0 Z " fill="#76543A" transform="translate(158,101)"/>
<path d="M0 0 C0.66 0.33 1.32 0.66 2 1 C2.625 4.0625 2.625 4.0625 3 7 C1.68 6.67 0.36 6.34 -1 6 C-1.042721 4.33388095 -1.04063832 2.66617115 -1 1 C-0.67 0.67 -0.34 0.34 0 0 Z " fill="#B2ADA0" transform="translate(43,104)"/>
<path d="M0 0 C0.66 0 1.32 0 2 0 C2.33 1.98 2.66 3.96 3 6 C2.01 6.33 1.02 6.66 0 7 C0 6.34 0 5.68 0 5 C-0.66 4.67 -1.32 4.34 -2 4 C-1.34 4 -0.68 4 0 4 C0 2.68 0 1.36 0 0 Z " fill="#8B5031" transform="translate(145,94)"/>
<path d="M0 0 C1.32 0 2.64 0 4 0 C3.34 1.32 2.68 2.64 2 4 C0.68 3.67 -0.64 3.34 -2 3 C-1.34 2.01 -0.68 1.02 0 0 Z " fill="#68442A" transform="translate(134,128)"/>
<path d="M0 0 C0.99 0.33 1.98 0.66 3 1 C3 1.66 3 2.32 3 3 C3.66 3.33 4.32 3.66 5 4 C3.68 4.33 2.36 4.66 1 5 C0.34 3.68 -0.32 2.36 -1 1 C-0.67 0.67 -0.34 0.34 0 0 Z " fill="#934A39" transform="translate(131,104)"/>
<path d="M0 0 C0.99 0.99 1.98 1.98 3 3 C2.67 3.66 2.34 4.32 2 5 C2.66 5.33 3.32 5.66 4 6 C3.01 6 2.02 6 1 6 C0.67 5.34 0.34 4.68 0 4 C-0.99 4 -1.98 4 -3 4 C-3 3.34 -3 2.68 -3 2 C-2.01 1.34 -1.02 0.68 0 0 Z " fill="#866147" transform="translate(133,101)"/>
<path d="M0 0 C0 2 0 2 -1.25 3.6875 C-1.8275 4.120625 -2.405 4.55375 -3 5 C-5.1875 4.6875 -5.1875 4.6875 -7 4 C-7 3.34 -7 2.68 -7 2 C-2.25 0 -2.25 0 0 0 Z " fill="#C3C0B2" transform="translate(47,57)"/>
</svg>
