<?xml version="1.0" standalone="no"?>
<!DOCTYPE svg PUBLIC "-//W3C//DTD SVG 20010904//EN"
 "http://www.w3.org/TR/2001/REC-SVG-20010904/DTD/svg10.dtd">
<svg version="1.0" xmlns="http://www.w3.org/2000/svg"
 width="64.000000pt" height="64.000000pt" viewBox="0 0 64.000000 64.000000"
 preserveAspectRatio="xMidYMid meet">

<g transform="translate(0.000000,64.000000) scale(0.100000,-0.100000)"
fill="#000000" stroke="none">
<path d="M73 610 c-59 -35 -63 -56 -63 -292 0 -150 4 -220 13 -238 18 -35 74
-70 113 -70 l34 0 0 101 c0 93 -2 103 -25 131 -35 41 -35 111 0 162 22 33 25
47 25 131 l0 95 -32 0 c-18 0 -47 -9 -65 -20z"/>
<path d="M152 375 c-16 -36 -15 -87 3 -111 13 -17 14 -12 15 59 0 42 -2 77 -3
77 -2 0 -9 -11 -15 -25z"/>
</g>
</svg>
