<?xml version="1.0" encoding="UTF-8"?>
<svg version="1.1" xmlns="http://www.w3.org/2000/svg" width="64" height="64">
<path d="M0 0 C0.82127884 -0.00960754 1.64255768 -0.01921509 2.48872375 -0.02911377 C3.81531258 -0.03548859 3.81531258 -0.03548859 5.16870117 -0.04199219 C6.53933968 -0.0505423 6.53933968 -0.0505423 7.93766785 -0.05926514 C9.87184492 -0.06871136 11.80603807 -0.07524762 13.74023438 -0.07910156 C16.68998528 -0.08879592 19.63903599 -0.11981817 22.58862305 -0.15136719 C24.46947829 -0.15789867 26.35033851 -0.16314857 28.23120117 -0.16699219 C29.10952103 -0.17933899 29.98784088 -0.19168579 30.89277649 -0.20440674 C35.98662166 -0.18600481 39.49109467 0.32267974 43.89916992 3.16113281 C47.47870432 7.03089972 49.0105894 10.00983751 49.06030273 15.26196289 C49.06991028 16.08324173 49.07951782 16.90452057 49.0894165 17.75068665 C49.09366638 18.63507919 49.09791626 19.51947174 49.10229492 20.43066406 C49.107995 21.34442307 49.11369507 22.25818207 49.11956787 23.19963074 C49.1290141 25.13380782 49.13555036 27.06800096 49.1394043 29.00219727 C49.14909866 31.95194817 49.1801209 34.90099888 49.21166992 37.85058594 C49.2182014 39.73144118 49.2234513 41.6123014 49.22729492 43.49316406 C49.23964172 44.37148392 49.25198853 45.24980377 49.26470947 46.15473938 C49.24630754 51.24858455 48.73762299 54.75305756 45.89916992 59.16113281 C42.02940301 62.74066721 39.05046522 64.27255229 33.79833984 64.32226562 C32.56642159 64.33667694 32.56642159 64.33667694 31.30961609 64.35137939 C29.98302727 64.35775421 29.98302727 64.35775421 28.62963867 64.36425781 C27.71587967 64.36995789 26.80212067 64.37565796 25.860672 64.38153076 C23.92649492 64.39097699 21.99230177 64.39751325 20.05810547 64.40136719 C17.10835457 64.41106155 14.15930385 64.44208379 11.2097168 64.47363281 C9.32886155 64.48016429 7.44800133 64.48541419 5.56713867 64.48925781 C4.68881882 64.50160461 3.81049896 64.51395142 2.90556335 64.52667236 C-2.18828181 64.50827044 -5.69275483 63.99958588 -10.10083008 61.16113281 C-13.68036447 57.2913659 -15.21224956 54.31242811 -15.26196289 49.06030273 C-15.27157043 48.2390239 -15.28117798 47.41774506 -15.29107666 46.57157898 C-15.29532654 45.68718643 -15.29957642 44.80279388 -15.30395508 43.89160156 C-15.30965515 42.97784256 -15.31535522 42.06408356 -15.32122803 41.12263489 C-15.33067426 39.18845781 -15.33721051 37.25426466 -15.34106445 35.32006836 C-15.35075881 32.37031746 -15.38178106 29.42126674 -15.41333008 26.47167969 C-15.41986156 24.59082444 -15.42511146 22.70996422 -15.42895508 20.82910156 C-15.44130188 19.95078171 -15.45364868 19.07246185 -15.46636963 18.16752625 C-15.4479677 13.07368108 -14.93928315 9.56920806 -12.10083008 5.16113281 C-8.23106317 1.58159842 -5.25212538 0.04971333 0 0 Z " fill="#BEA189" transform="translate(15.100830078125,-0.1611328125)"/>
<path d="M0 0 C0 0.99 0 1.98 0 3 C1.0209375 3.061875 1.0209375 3.061875 2.0625 3.125 C6.2271256 4.36552678 8.97626254 6.93562091 12 10 C13.85618207 13.71236414 13.44809981 17.94843088 13 22 C10.84672835 26.38629409 8.55481002 29.11142024 4 31 C1.1875 30.6875 1.1875 30.6875 -1 30 C-1.3125 27.6875 -1.3125 27.6875 -1 25 C-0.195625 24.566875 0.60875 24.13375 1.4375 23.6875 C4.14447327 22.30526255 4.14447327 22.30526255 4.5546875 20.0390625 C4.78685577 18.03397286 4.90085002 16.01604957 5 14 C3.35 13.01 1.7 12.02 0 11 C0 11.66 0 12.32 0 13 C-4.38000076 12.49942848 -6.84169815 11.06806466 -10 8 C-10 7.01 -10 6.02 -10 5 C-4.88372093 0 -4.88372093 0 0 0 Z " fill="#FAF8F6" transform="translate(39,15)"/>
<path d="M0 0 C0.8353125 0.37125 0.8353125 0.37125 1.6875 0.75 C0.6875 3.75 0.6875 3.75 -1.25 4.75 C-1.930625 5.08 -2.61125 5.41 -3.3125 5.75 C-5.54801759 9.10327639 -5.48533528 9.65743657 -4.9375 13.4375 C-4.82664062 14.24574219 -4.71578125 15.05398437 -4.6015625 15.88671875 C-4.50617187 16.50160156 -4.41078125 17.11648437 -4.3125 17.75 C-1.6725 18.41 0.9675 19.07 3.6875 19.75 C4.0175 18.76 4.3475 17.77 4.6875 16.75 C6.6675 18.4 8.6475 20.05 10.6875 21.75 C9.06410195 23.45884005 7.39430947 25.12446717 5.6875 26.75 C5.0275 26.75 4.3675 26.75 3.6875 26.75 C3.3575 26.09 3.0275 25.43 2.6875 24.75 C0.93248964 24.02784871 0.93248964 24.02784871 -1.125 23.4375 C-5.12147632 22.00507121 -7.12489364 20.51268294 -9.3125 16.75 C-10.57606929 12.87505417 -10.40462647 11.04685195 -9.1875 7.125 C-7.03937849 3.25838127 -4.86846447 -0.52632048 0 0 Z " fill="#AB896D" transform="translate(23.3125,20.25)"/>
<path d="M0 0 C0.33 1.65 0.66 3.3 1 5 C0.195625 5.45375 -0.60875 5.9075 -1.4375 6.375 C-4.08856572 7.74725665 -4.08856572 7.74725665 -5 10 C-5.0689472 11.37342831 -5.08467708 12.75002102 -5.0625 14.125 C-5.041875 15.40375 -5.02125 16.6825 -5 18 C-2.525 18.99 -2.525 18.99 0 20 C0 19.01 0 18.02 0 17 C4.40114397 17.50298788 6.71195019 19.08772731 10 22 C9.875 23.75 9.875 23.75 9 26 C6.125 28.3125 6.125 28.3125 3 30 C2.01 29.67 1.02 29.34 0 29 C0 28.01 0 27.02 0 26 C-0.70125 26.103125 -1.4025 26.20625 -2.125 26.3125 C-6.30276943 25.85839463 -8.07585978 23.92414022 -11 21 C-13.4438353 17.17486648 -13.21454607 13.58628773 -12.6171875 9.22265625 C-11.5974999 5.55049013 -9.71075376 3.64463782 -7 1 C-4.53721199 -0.231394 -2.7204945 -0.07159196 0 0 Z M-8.625 4.3125 C-11.20497514 7.47883313 -11.89339555 10.97745894 -12 15 C-10.41666762 20.24478852 -7.72578729 22.39599476 -3 25 C-1.67323492 25.35858516 -0.34164079 25.7018576 1 26 C1.33 26.66 1.66 27.32 2 28 C5.09162264 26.61410019 6.49183541 25.50816459 9 23 C6.69 21.35 4.38 19.7 2 18 C2 18.99 2 19.98 2 21 C-0.64 20.34 -3.28 19.68 -6 19 C-7.43705169 10.89710611 -7.43705169 10.89710611 -5.8125 7.5625 C-3.9597972 5.96534241 -2.25612501 4.93356897 0 4 C-0.33 3.01 -0.66 2.02 -1 1 C-4.5229612 1 -6.0143227 2.01510398 -8.625 4.3125 Z " fill="#E9E0D9" transform="translate(25,19)"/>
</svg>
