<?xml version="1.0" encoding="UTF-8"?>
<!DOCTYPE svg PUBLIC "-//W3C//DTD SVG 1.1//EN" "http://www.w3.org/Graphics/SVG/1.1/DTD/svg11.dtd">
<svg xmlns="http://www.w3.org/2000/svg" version="1.1" width="64px" height="64px" style="shape-rendering:geometricPrecision; text-rendering:geometricPrecision; image-rendering:optimizeQuality; fill-rule:evenodd; clip-rule:evenodd" xmlns:xlink="http://www.w3.org/1999/xlink">
<g><path style="opacity:0.967" fill="#a37d60" d="M 15.5,-0.5 C 17.5,-0.5 19.5,-0.5 21.5,-0.5C 20.5422,5.74365 20.2088,12.077 20.5,18.5C 18.5887,19.075 16.922,20.075 15.5,21.5C 15.5,14.1667 15.5,6.83333 15.5,-0.5 Z"/></g>
<g><path style="opacity:0.989" fill="#b08e74" d="M 21.5,-0.5 C 23.5,-0.5 25.5,-0.5 27.5,-0.5C 28.114,11.751 27.4474,23.751 25.5,35.5C 23.084,38.104 20.9173,37.7706 19,34.5C 17.6024,28.9608 19.6024,25.2942 25,23.5C 26.5819,18.5981 25.0819,16.9315 20.5,18.5C 20.2088,12.077 20.5422,5.74365 21.5,-0.5 Z"/></g>
<g><path style="opacity:0.999" fill="#966d4d" d="M 10.5,-0.5 C 12.1667,-0.5 13.8333,-0.5 15.5,-0.5C 15.5,6.83333 15.5,14.1667 15.5,21.5C 10.311,28.0665 10.311,34.7332 15.5,41.5C 15.5,48.8333 15.5,56.1667 15.5,63.5C 13.8333,63.5 12.1667,63.5 10.5,63.5C 10.5,62.8333 10.1667,62.5 9.5,62.5C 9.5,41.8333 9.5,21.1667 9.5,0.5C 10.1667,0.5 10.5,0.166667 10.5,-0.5 Z"/></g>
<g><path style="opacity:1" fill="#c5ab94" d="M 32.5,-0.5 C 34.5,-0.5 36.5,-0.5 38.5,-0.5C 38.8205,4.69463 38.4872,9.69463 37.5,14.5C 35.7162,14.8925 34.0495,15.5592 32.5,16.5C 32.5,10.8333 32.5,5.16667 32.5,-0.5 Z"/></g>
<g><path style="opacity:0.998" fill="#e8d7c7" d="M 44.5,-0.5 C 47.1667,-0.5 49.8333,-0.5 52.5,-0.5C 53.6715,0.344644 55.0048,1.01131 56.5,1.5C 56.5,21.5 56.5,41.5 56.5,61.5C 55.0048,61.9887 53.6715,62.6554 52.5,63.5C 51.8333,63.5 51.1667,63.5 50.5,63.5C 50.8261,54.9832 50.4927,46.6499 49.5,38.5C 53.3788,29.6015 51.0454,22.9348 42.5,18.5C 44.4563,12.588 45.1229,6.25471 44.5,-0.5 Z"/></g>
<g><path style="opacity:0.987" fill="#8b5f3d" d="M 9.5,0.5 C 9.5,21.1667 9.5,41.8333 9.5,62.5C 4.46752,60.8009 1.13418,57.4676 -0.5,52.5C -0.5,38.5 -0.5,24.5 -0.5,10.5C 1.13418,5.53242 4.46752,2.19909 9.5,0.5 Z"/></g>
<g><path style="opacity:0.985" fill="#f6eadd" d="M 56.5,1.5 C 60.0089,3.66519 62.3422,6.66519 63.5,10.5C 63.5,24.5 63.5,38.5 63.5,52.5C 62.3422,56.3348 60.0089,59.3348 56.5,61.5C 56.5,41.5 56.5,21.5 56.5,1.5 Z"/></g>
<g><path style="opacity:1" fill="#d1b9a5" d="M 38.5,-0.5 C 40.5,-0.5 42.5,-0.5 44.5,-0.5C 45.1229,6.25471 44.4563,12.588 42.5,18.5C 41.1667,18.5 39.8333,18.5 38.5,18.5C 38.5674,17.0413 38.2341,15.7079 37.5,14.5C 38.4872,9.69463 38.8205,4.69463 38.5,-0.5 Z"/></g>
<g><path style="opacity:1" fill="#fcfbfa" d="M 37.5,14.5 C 38.2341,15.7079 38.5674,17.0413 38.5,18.5C 39.8333,18.5 41.1667,18.5 42.5,18.5C 51.0454,22.9348 53.3788,29.6015 49.5,38.5C 47.4079,42.5469 44.0746,44.5469 39.5,44.5C 37.6231,43.3409 37.1231,41.6742 38,39.5C 43.3976,37.7058 45.3976,34.0392 44,28.5C 41.9174,25.0843 39.4174,24.7509 36.5,27.5C 34.9271,27.2483 33.5938,26.5817 32.5,25.5C 27.1908,22.4478 27.1908,19.4478 32.5,16.5C 34.0495,15.5592 35.7162,14.8925 37.5,14.5 Z"/></g>
<g><path style="opacity:1" fill="#e6dcd3" d="M 25.5,35.5 C 28.0215,36.0115 30.3549,37.0115 32.5,38.5C 33.355,39.5307 34.0217,40.6974 34.5,42C 33.3955,43.7153 32.0622,45.2153 30.5,46.5C 28.8583,48.0808 26.8583,48.7475 24.5,48.5C 24.5,47.1667 24.5,45.8333 24.5,44.5C 23.5,44.5 22.5,44.5 21.5,44.5C 19.2163,44.0248 17.2163,43.0248 15.5,41.5C 10.311,34.7332 10.311,28.0665 15.5,21.5C 16.922,20.075 18.5887,19.075 20.5,18.5C 25.0819,16.9315 26.5819,18.5981 25,23.5C 19.6024,25.2942 17.6024,28.9608 19,34.5C 20.9173,37.7706 23.084,38.104 25.5,35.5 Z"/></g>
<g><path style="opacity:1" fill="#bb9c84" d="M 27.5,-0.5 C 29.1667,-0.5 30.8333,-0.5 32.5,-0.5C 32.5,5.16667 32.5,10.8333 32.5,16.5C 27.1908,19.4478 27.1908,22.4478 32.5,25.5C 32.5,29.8333 32.5,34.1667 32.5,38.5C 30.3549,37.0115 28.0215,36.0115 25.5,35.5C 27.4474,23.751 28.114,11.751 27.5,-0.5 Z"/></g>
<g><path style="opacity:1" fill="#a47f62" d="M 24.5,39.5 C 25.2341,40.7079 25.5674,42.0413 25.5,43.5C 15.7246,41.9673 11.8913,36.3007 14,26.5C 15.7392,23.0933 18.4059,20.76 22,19.5C 23.2798,19.6135 24.1131,20.2801 24.5,21.5C 20.4606,23.2099 17.7939,26.2099 16.5,30.5C 16.772,35.766 19.4387,38.766 24.5,39.5 Z"/></g>
<g><path style="opacity:1" fill="#ba9c84" d="M 25.5,43.5 C 25.5674,42.0413 25.2341,40.7079 24.5,39.5C 25.9311,39.1193 26.7645,38.1193 27,36.5C 29.4449,37.9771 31.6116,39.8104 33.5,42C 31.3586,43.3076 29.3586,44.8076 27.5,46.5C 26.5748,45.6431 25.9081,44.6431 25.5,43.5 Z"/></g>
<g><path style="opacity:0.98" fill="#cbb29c" d="M 32.5,25.5 C 33.5938,26.5817 34.9271,27.2483 36.5,27.5C 39.4174,24.7509 41.9174,25.0843 44,28.5C 45.3976,34.0392 43.3976,37.7058 38,39.5C 37.1231,41.6742 37.6231,43.3409 39.5,44.5C 40.209,45.404 41.209,45.7373 42.5,45.5C 42.5,51.5 42.5,57.5 42.5,63.5C 39.1667,63.5 35.8333,63.5 32.5,63.5C 33.1167,57.4018 32.45,51.7351 30.5,46.5C 32.0622,45.2153 33.3955,43.7153 34.5,42C 34.0217,40.6974 33.355,39.5307 32.5,38.5C 32.5,34.1667 32.5,29.8333 32.5,25.5 Z"/></g>
<g><path style="opacity:0.961" fill="#dbc7b4" d="M 49.5,38.5 C 50.4927,46.6499 50.8261,54.9832 50.5,63.5C 47.8333,63.5 45.1667,63.5 42.5,63.5C 42.5,57.5 42.5,51.5 42.5,45.5C 41.209,45.7373 40.209,45.404 39.5,44.5C 44.0746,44.5469 47.4079,42.5469 49.5,38.5 Z"/></g>
<g><path style="opacity:1" fill="#a68164" d="M 15.5,41.5 C 17.2163,43.0248 19.2163,44.0248 21.5,44.5C 22.4578,50.7436 22.7912,57.077 22.5,63.5C 20.1667,63.5 17.8333,63.5 15.5,63.5C 15.5,56.1667 15.5,48.8333 15.5,41.5 Z"/></g>
<g><path style="opacity:0.966" fill="#b39379" d="M 21.5,44.5 C 22.5,44.5 23.5,44.5 24.5,44.5C 24.5,45.8333 24.5,47.1667 24.5,48.5C 26.8583,48.7475 28.8583,48.0808 30.5,46.5C 32.45,51.7351 33.1167,57.4018 32.5,63.5C 29.1667,63.5 25.8333,63.5 22.5,63.5C 22.7912,57.077 22.4578,50.7436 21.5,44.5 Z"/></g>
</svg>
